<svg width="47" height="32" viewBox="0 0 47 32" fill="none" xmlns="http://www.w3.org/2000/svg">
<path d="M42.4775 0H3.86159C1.72889 0 0 1.79086 0 4V28C0 30.2091 1.72889 32 3.86159 32H42.4775C44.6102 32 46.3391 30.2091 46.3391 28V4C46.3391 1.79086 44.6102 0 42.4775 0Z" fill="#333441"/>
<path d="M9.92874 17.429C9.71712 17.4403 9.50553 17.4064 9.30711 17.3293C9.1087 17.2523 8.92771 17.1338 8.7754 16.9812C8.6231 16.8286 8.50274 16.6451 8.4218 16.4423C8.34086 16.2394 8.30109 16.0215 8.30494 15.802C8.30271 15.583 8.34293 15.3656 8.42323 15.1629C8.50352 14.9603 8.62225 14.7763 8.7724 14.622C8.92254 14.4677 9.10105 14.3461 9.29735 14.2645C9.49365 14.183 9.70375 14.143 9.91523 14.147C10.3598 14.1225 10.796 14.2798 11.1297 14.585L10.7078 15.118C10.4916 14.9031 10.2023 14.7852 9.90268 14.79C9.78031 14.7945 9.66 14.824 9.54864 14.8767C9.43727 14.9294 9.33703 15.0044 9.25364 15.0972C9.17025 15.1901 9.10536 15.2991 9.06267 15.418C9.01999 15.5369 9.00034 15.6633 9.00486 15.79C8.99904 15.9205 9.01909 16.0508 9.06377 16.173C9.10845 16.2951 9.17682 16.4064 9.26466 16.5001C9.3525 16.5938 9.45794 16.6679 9.57448 16.7178C9.69102 16.7676 9.81619 16.7922 9.94226 16.79C10.1714 16.794 10.3964 16.7276 10.5891 16.599V16.147H9.90268V15.547H11.2359V16.923C10.8722 17.2475 10.4087 17.4269 9.92874 17.429Z" fill="white"/>
<path d="M13.229 14.147C13.0199 14.1429 12.8121 14.1826 12.6181 14.2636C12.4242 14.3447 12.248 14.4654 12.1001 14.6186C11.9522 14.7718 11.8356 14.9543 11.7574 15.1552C11.6792 15.3562 11.6409 15.5714 11.6448 15.788C11.6466 16.2232 11.8152 16.6399 12.1136 16.9463C12.412 17.2528 12.8156 17.4239 13.2358 17.422C13.6559 17.4202 14.0582 17.2455 14.354 16.9364C14.6498 16.6274 14.815 16.2092 14.8132 15.774C14.8168 15.5581 14.7782 15.3438 14.6997 15.1438C14.6212 14.9438 14.5044 14.7623 14.3564 14.6103C14.2084 14.4583 14.0322 14.3389 13.8384 14.2592C13.6447 14.1796 13.4374 14.1415 13.229 14.147ZM14.1268 15.788C14.1334 15.9145 14.115 16.0411 14.0729 16.16C14.0308 16.279 13.9658 16.3878 13.8818 16.4799C13.7979 16.572 13.6967 16.6455 13.5845 16.6959C13.4723 16.7463 13.3513 16.7725 13.229 16.773C13.1059 16.7709 12.9845 16.7431 12.872 16.6912C12.7596 16.6393 12.6584 16.5644 12.5745 16.4711C12.4907 16.3777 12.4259 16.2677 12.3841 16.1478C12.3423 16.0278 12.3243 15.9003 12.3312 15.773C12.3247 15.6465 12.343 15.5199 12.3851 15.401C12.4273 15.2821 12.4923 15.1732 12.5762 15.0811C12.6602 14.989 12.7614 14.9155 12.8736 14.8651C12.9858 14.8147 13.1067 14.7885 13.229 14.788C13.3521 14.7901 13.4736 14.8179 13.586 14.8698C13.6985 14.9217 13.7997 14.9966 13.8835 15.09C13.9674 15.1834 14.0321 15.2933 14.0739 15.4133C14.1158 15.5332 14.1338 15.6607 14.1268 15.788Z" fill="white"/>
<path d="M16.7289 17.429C16.5252 17.4266 16.324 17.3819 16.1372 17.2976C15.9505 17.2133 15.7819 17.091 15.6416 16.938C15.5013 16.785 15.392 16.6043 15.3203 16.4068C15.2485 16.2093 15.2157 15.9989 15.2239 15.788C15.216 15.576 15.2493 15.3646 15.322 15.1662C15.3947 14.9679 15.5052 14.7868 15.6469 14.6336C15.7886 14.4805 15.9587 14.3585 16.1469 14.2749C16.3351 14.1913 16.5377 14.1478 16.7424 14.147C16.9616 14.1413 17.1794 14.1834 17.3818 14.2706C17.5843 14.3577 17.7667 14.488 17.9173 14.653L17.6798 14.913C17.5623 14.7756 17.418 14.6655 17.2564 14.59C17.0949 14.5145 16.9197 14.4753 16.7424 14.475C16.5821 14.4791 16.4242 14.5167 16.2783 14.5856C16.1323 14.6545 16.0013 14.7532 15.8931 14.8758C15.7849 14.9984 15.7018 15.1425 15.6486 15.2992C15.5955 15.456 15.5735 15.6222 15.584 15.788C15.5746 15.9535 15.5974 16.1193 15.6509 16.2756C15.7044 16.4319 15.7876 16.5754 15.8956 16.6978C16.0036 16.8202 16.1342 16.919 16.2796 16.9882C16.4251 17.0575 16.5824 17.0958 16.7424 17.101C16.9252 17.102 17.106 17.0623 17.2726 16.9845C17.4392 16.9067 17.5876 16.7926 17.7078 16.65L17.9318 16.882C17.783 17.0593 17.5982 17.2003 17.3905 17.2949C17.1829 17.3895 16.9576 17.4353 16.7309 17.429" fill="white"/>
<path d="M19.8457 14.2158H19.5291L18.1562 17.3748H18.4999L18.8562 16.5408H20.4973L20.8536 17.3748H21.2233L19.8457 14.2158ZM19.001 16.2258L19.6874 14.6258L20.3738 16.2258H19.001Z" fill="white"/>
<path d="M23.2613 16.0758C23.4832 16.059 23.6904 15.9546 23.8402 15.7841C23.99 15.6137 24.071 15.3903 24.0664 15.1598C24.0664 14.5858 23.6436 14.2158 22.9842 14.2158H21.7031V17.3748H22.0333V16.1438H22.878L23.7363 17.3748H24.1591L23.2613 16.0758ZM22.0468 15.8298V14.5438H22.9572C23.4322 14.5438 23.7227 14.7758 23.7227 15.1728C23.7227 15.5698 23.4061 15.8288 22.9572 15.8288L22.0468 15.8298Z" fill="white"/>
<path d="M25.7454 14.2151H24.6758V17.3741H25.7454C25.9549 17.3868 26.1647 17.3553 26.3622 17.2816C26.5596 17.2079 26.7405 17.0934 26.8939 16.9451C27.0474 16.7968 27.1702 16.6178 27.2549 16.4189C27.3395 16.22 27.3844 16.0054 27.3866 15.7881C27.3835 15.5715 27.338 15.3579 27.2528 15.1602C27.1677 14.9624 27.0446 14.7846 26.8912 14.6375C26.7378 14.4905 26.5571 14.3772 26.3602 14.3046C26.1632 14.2319 25.9541 14.2015 25.7454 14.2151ZM25.7454 17.0461H25.033V14.5431H25.7454C25.9104 14.5311 26.0759 14.5551 26.2313 14.6133C26.3868 14.6716 26.5287 14.7629 26.6481 14.8814C26.7675 14.9998 26.8616 15.1429 26.9244 15.3012C26.9873 15.4596 27.0174 15.6299 27.013 15.8011C27.015 15.9709 26.983 16.1394 26.9191 16.2959C26.8552 16.4524 26.7608 16.5935 26.6418 16.7104C26.5228 16.8273 26.3817 16.9174 26.2275 16.9752C26.0732 17.033 25.9091 17.0571 25.7454 17.0461Z" fill="white"/>
<path d="M27.9062 14.2158H28.2625V17.0468H30.0185V17.3748H27.9062V14.2158Z" fill="white"/>
<path d="M32.6066 14.5438H30.838V15.6238H32.4087V15.9388H30.838V17.0468H32.6201V17.3748H30.5078V14.2158H32.6066V14.5438Z" fill="white"/>
<path d="M34.3516 15.6104C35.0119 15.7604 35.317 16.0204 35.317 16.5104C35.313 16.6407 35.2828 16.7688 35.2283 16.8863C35.1738 17.0038 35.0963 17.1083 35.0006 17.193C34.9049 17.2777 34.7932 17.3408 34.6726 17.3782C34.5521 17.4157 34.4253 17.4266 34.3004 17.4104C34.0757 17.4137 33.8526 17.3706 33.6441 17.2838C33.4356 17.1969 33.2459 17.0679 33.0859 16.9044L33.2974 16.6444C33.4276 16.7882 33.5851 16.9025 33.7601 16.9801C33.935 17.0578 34.1236 17.097 34.3139 17.0954C34.7097 17.0954 34.9743 16.8764 34.9743 16.5484C34.9743 16.2484 34.8294 16.0694 34.1952 15.9334C33.5088 15.7694 33.1921 15.5334 33.1921 15.0034C33.198 14.879 33.2282 14.757 33.2809 14.645C33.3336 14.533 33.4078 14.4333 33.4989 14.3519C33.5901 14.2705 33.6962 14.2092 33.8109 14.1716C33.9256 14.1341 34.0465 14.1211 34.1662 14.1334C34.5471 14.126 34.9176 14.2621 35.2089 14.5164L35.0148 14.8034C34.7808 14.5811 34.4741 14.4589 34.1566 14.4614C33.7704 14.4614 33.5233 14.6934 33.5233 14.9814C33.5493 15.2964 33.6951 15.4734 34.3545 15.6104" fill="white"/>
<path d="M37.0586 15.6104C37.7189 15.7604 38.024 16.0204 38.024 16.5104C38.02 16.6407 37.9898 16.7688 37.9353 16.8863C37.8808 17.0038 37.8033 17.1083 37.7076 17.193C37.6119 17.2777 37.5002 17.3408 37.3797 17.3782C37.2591 17.4157 37.1323 17.4266 37.0074 17.4104C36.7827 17.4137 36.5597 17.3706 36.3512 17.2838C36.1427 17.1969 35.9529 17.0679 35.793 16.9044L36.0044 16.6444C36.1346 16.7882 36.2922 16.9025 36.4671 16.9801C36.6421 17.0578 36.8306 17.097 37.021 17.0954C37.4168 17.0954 37.6813 16.8764 37.6813 16.5484C37.6813 16.2484 37.5365 16.0694 36.9022 15.9334C36.2158 15.7694 35.8992 15.5334 35.8992 15.0034C35.905 14.879 35.9352 14.757 35.9879 14.645C36.0407 14.533 36.1149 14.4333 36.206 14.3519C36.2971 14.2705 36.4032 14.2092 36.5179 14.1716C36.6327 14.1341 36.7535 14.1211 36.8733 14.1334C37.2541 14.126 37.6246 14.2621 37.9159 14.5164L37.7218 14.8034C37.4878 14.5811 37.1812 14.4589 36.8636 14.4614C36.4774 14.4614 36.2303 14.6934 36.2303 14.9814C36.2438 15.2964 36.4021 15.4734 37.0615 15.6104" fill="white"/>
</svg>
