<svg width="47" height="32" viewBox="0 0 47 32" fill="none" xmlns="http://www.w3.org/2000/svg">
<path d="M42.4775 0H3.86159C1.72889 0 0 1.79086 0 4V28C0 30.2091 1.72889 32 3.86159 32H42.4775C44.6102 32 46.3391 30.2091 46.3391 28V4C46.3391 1.79086 44.6102 0 42.4775 0Z" fill="#333441"/>
<path d="M22.6349 15.4076V19.2876H21.4648V9.70962H24.5686C24.9399 9.70153 25.3089 9.77113 25.6536 9.91426C25.9983 10.0574 26.3116 10.2711 26.5747 10.5426C27.0861 11.0472 27.3859 11.7395 27.4097 12.4706C27.4335 13.2018 27.1795 13.9134 26.7021 14.4526L26.5708 14.5896C26.3055 14.8568 25.9914 15.0666 25.647 15.2069C25.3026 15.3472 24.9347 15.4151 24.5647 15.4066L22.6349 15.4076ZM22.6349 10.8856V14.2316H24.5976C24.8139 14.2385 25.0292 14.1975 25.229 14.1113C25.4288 14.0251 25.6085 13.8956 25.756 13.7316C26.0493 13.409 26.2094 12.9805 26.2022 12.5375C26.195 12.0944 26.021 11.6718 25.7174 11.3596C25.4194 11.0544 25.0167 10.8839 24.5976 10.8856H22.6349Z" fill="white"/>
<path d="M30.1162 12.5214C30.8665 12.48 31.6025 12.7454 32.1658 13.2604C32.422 13.5266 32.6211 13.8458 32.7502 14.1972C32.8792 14.5485 32.9354 14.9241 32.9149 15.2994V19.4174H31.7951V18.4914H31.7439C31.5476 18.8411 31.2658 19.131 30.9268 19.3319C30.5878 19.5327 30.2036 19.6374 29.8131 19.6354C29.1788 19.6557 28.5614 19.4214 28.0899 18.9814C27.866 18.7781 27.688 18.5262 27.5687 18.2436C27.4494 17.961 27.3917 17.6547 27.3996 17.3464C27.389 17.0311 27.4499 16.7176 27.5773 16.4311C27.7047 16.1446 27.8951 15.8929 28.1333 15.6964C28.6954 15.2606 29.3872 15.043 30.0882 15.0814C30.6839 15.0581 31.2752 15.1959 31.8038 15.4814V15.1994C31.8041 14.989 31.7612 14.781 31.6779 14.5891C31.5947 14.3972 31.4731 14.2258 31.3211 14.0864C31.0142 13.7927 30.6122 13.6289 30.1944 13.6274C29.8845 13.6217 29.5785 13.7007 29.3074 13.8565C29.0362 14.0122 28.8094 14.2391 28.6498 14.5144L27.6178 13.8214C27.8877 13.3969 28.2606 13.0533 28.6991 12.8252C29.1376 12.597 29.6263 12.4922 30.1162 12.5214ZM28.6044 17.3704C28.6035 17.5282 28.6379 17.6841 28.7049 17.8258C28.7719 17.9676 28.8697 18.0913 28.9906 18.1874C29.2466 18.4042 29.5684 18.52 29.899 18.5144C30.145 18.5134 30.3882 18.4612 30.6142 18.3608C30.8403 18.2605 31.0445 18.1141 31.2149 17.9304C31.3984 17.7549 31.5447 17.5417 31.6444 17.3045C31.7441 17.0672 31.7951 16.8111 31.7941 16.5524C31.3547 16.2153 30.8132 16.0524 30.2678 16.0934C29.8427 16.0794 29.4247 16.2078 29.0755 16.4594C28.931 16.5596 28.8124 16.6951 28.7303 16.854C28.6481 17.0128 28.6049 17.1902 28.6044 17.3704Z" fill="white"/>
<path fill-rule="evenodd" clip-rule="evenodd" d="M39.3391 12.8682L35.4283 22.3012H34.2215L35.6754 19.0012L33.1094 12.8682H34.3818L36.2353 17.5682H36.2575L38.0677 12.8682H39.3391Z" fill="white"/>
<path fill-rule="evenodd" clip-rule="evenodd" d="M17.5816 14.5671C17.5818 14.1937 17.5527 13.8208 17.4947 13.4521H12.5586V15.5681H15.3853C15.3283 15.9055 15.2063 16.2276 15.0265 16.515C14.8467 16.8025 14.6128 17.0494 14.3388 17.2411V18.6161H16.0253C16.5421 18.0903 16.9473 17.4586 17.2153 16.7615C17.4832 16.0643 17.608 15.317 17.5816 14.5671Z" fill="white"/>
<path fill-rule="evenodd" clip-rule="evenodd" d="M12.5602 19.944C13.8381 19.9802 15.0802 19.5046 16.0279 18.616L14.3414 17.241C13.8133 17.6003 13.1919 17.7842 12.5602 17.768C11.903 17.7564 11.266 17.5312 10.739 17.1242C10.212 16.7173 9.82184 16.1491 9.62347 15.5H7.88672V16.916C8.31543 17.8221 8.98032 18.5859 9.80622 19.121C10.6321 19.6561 11.5861 19.9412 12.5602 19.944Z" fill="white"/>
<path fill-rule="evenodd" clip-rule="evenodd" d="M9.62341 15.4995C9.40538 14.815 9.40538 14.076 9.62341 13.3915V11.9785H7.88569C7.51644 12.7446 7.32422 13.5892 7.32422 14.4455C7.32422 15.3018 7.51644 16.1464 7.88569 16.9125L9.62341 15.4995Z" fill="white"/>
<path fill-rule="evenodd" clip-rule="evenodd" d="M12.5602 11.1226C12.9307 11.1157 13.2987 11.1851 13.6431 11.3268C13.9875 11.4684 14.3013 11.6794 14.5663 11.9476L16.0636 10.3746C15.1195 9.44472 13.8629 8.93219 12.5602 8.94557C11.5857 8.94966 10.6317 9.23583 9.80593 9.77176C8.98013 10.3077 8.31538 11.072 7.88672 11.9786L9.62444 13.3996C9.82099 12.7488 10.2103 12.1786 10.7373 11.7699C11.2642 11.3612 11.902 11.1347 12.5602 11.1226Z" fill="white"/>
</svg>
