<svg width="47" height="32" viewBox="0 0 47 32" fill="none" xmlns="http://www.w3.org/2000/svg">
<path d="M42.4775 0H3.86159C1.72889 0 0 1.79086 0 4V28C0 30.2091 1.72889 32 3.86159 32H42.4775C44.6102 32 46.3391 30.2091 46.3391 28V4C46.3391 1.79086 44.6102 0 42.4775 0Z" fill="#333441"/>
<path d="M16.9895 7.2894L16.8013 7.3224C16.2112 7.39612 15.6501 7.62848 15.1736 7.9964C15.067 8.06901 14.9654 8.1492 14.8695 8.2364C14.8576 8.2164 14.8503 8.1938 14.8483 8.1704C14.827 8.0504 14.8164 7.9214 14.7952 7.8004C14.7934 7.75859 14.7834 7.71759 14.7659 7.67988C14.7484 7.64216 14.7237 7.6085 14.6933 7.58094C14.6629 7.55337 14.6275 7.53247 14.589 7.51949C14.5506 7.50651 14.5101 7.50171 14.4698 7.5054H13.9775C13.6734 7.5054 13.6203 7.5724 13.6203 7.8764V17.3144C13.62 17.3731 13.6416 17.4296 13.6807 17.4721C13.7198 17.5146 13.7732 17.5398 13.8298 17.5424H14.7431C14.8695 17.5424 14.9419 17.4564 14.9525 17.3144C14.9614 17.2714 14.965 17.2274 14.9632 17.1834V13.9054C15.0056 13.9494 15.0375 13.9714 15.0597 13.9924C15.4138 14.31 15.8348 14.5373 16.2889 14.6563C16.743 14.7752 17.2177 14.7825 17.675 14.6774C18.0856 14.5935 18.4708 14.4084 18.7978 14.1377C19.1248 13.8671 19.384 13.5188 19.5536 13.1224C19.8439 12.5218 19.9944 11.8591 19.9929 11.1874C20.0404 10.4431 19.9218 9.69754 19.6463 9.0084C19.4954 8.59049 19.2433 8.21984 18.9141 7.93209C18.5849 7.64434 18.1897 7.44919 17.7667 7.3654C17.6296 7.3324 17.4838 7.3214 17.3467 7.2994C17.2096 7.2774 17.1044 7.2894 16.9895 7.2894ZM23.9829 7.2894C23.9424 7.30211 23.9006 7.30951 23.8583 7.3114C23.4405 7.32928 23.0255 7.39093 22.6197 7.4954C22.3571 7.5604 22.1052 7.6584 21.8532 7.7444C21.7817 7.76566 21.7195 7.81197 21.6772 7.87543C21.635 7.9389 21.6153 8.01558 21.6215 8.0924C21.6321 8.2344 21.6215 8.3854 21.6215 8.5274C21.6321 8.7444 21.7181 8.8004 21.9169 8.7454C22.2529 8.6584 22.5927 8.5614 22.9238 8.4964C23.4491 8.38731 23.9877 8.36504 24.5196 8.4304C24.8002 8.45301 25.0606 8.59005 25.2437 8.8114C25.3928 9.02282 25.4739 9.27754 25.4754 9.5394C25.486 9.9094 25.486 10.2024 25.486 10.5714C25.486 10.5924 25.486 10.6144 25.4754 10.6244H25.4223C24.9713 10.5091 24.5112 10.4364 24.0476 10.4074C23.5654 10.3674 23.0805 10.4269 22.6207 10.5824C22.3468 10.6664 22.0925 10.808 21.8739 10.9985C21.6553 11.189 21.477 11.4242 21.3502 11.6894C21.164 12.1151 21.1051 12.5888 21.1813 13.0494C21.2133 13.3449 21.3142 13.628 21.4753 13.8742C21.6364 14.1203 21.8529 14.3222 22.1061 14.4624C22.6072 14.7296 23.1809 14.8135 23.7338 14.7004C24.3733 14.6022 24.9732 14.3194 25.4648 13.8844C25.485 13.8634 25.5072 13.8534 25.5285 13.8314C25.5603 14.0054 25.5816 14.1694 25.6125 14.3214C25.6168 14.3834 25.6426 14.4416 25.6852 14.4854C25.7278 14.5292 25.7843 14.5554 25.8442 14.5594H26.547C26.6009 14.5571 26.6519 14.5332 26.6892 14.4927C26.7264 14.4522 26.7471 14.3983 26.7468 14.3424C26.7562 14.3032 26.7598 14.2627 26.7574 14.2224V9.5894C26.7566 9.39979 26.7415 9.21054 26.7121 9.0234C26.6888 8.7459 26.6025 8.47802 26.4602 8.24166C26.318 8.0053 26.1237 7.80715 25.8934 7.6634C25.6047 7.49702 25.2877 7.39006 24.9599 7.3484C24.8025 7.3264 24.6548 7.3154 24.4974 7.2934L23.9829 7.2894ZM27.6224 7.2894C27.5172 7.2894 27.4651 7.3894 27.4853 7.4954C27.5083 7.58798 27.5363 7.67913 27.5693 7.7684C28.406 9.92173 29.2527 12.0781 30.1093 14.2374C30.1481 14.3185 30.1683 14.4079 30.1683 14.4984C30.1683 14.5889 30.1481 14.6783 30.1093 14.7594C29.9732 15.0844 29.8573 15.4214 29.7106 15.7484C29.6551 15.8942 29.5673 16.0245 29.4543 16.1287C29.3413 16.233 29.2062 16.3082 29.0599 16.3484C28.8442 16.4069 28.6197 16.4218 28.3986 16.3924C28.2934 16.3814 28.1872 16.3594 28.082 16.3484C27.9342 16.3374 27.8628 16.4024 27.8522 16.5654V17.0024C27.8628 17.2534 27.9362 17.3614 28.1775 17.4024C28.4167 17.4479 28.6586 17.4766 28.9016 17.4884C29.2417 17.5105 29.5809 17.4324 29.8801 17.2632C30.1792 17.0941 30.426 16.8407 30.592 16.5324C30.7457 16.2719 30.879 15.999 30.9907 15.7164C32.0082 13.0524 33.018 10.3994 34.024 7.7244C34.0553 7.6478 34.0761 7.567 34.0858 7.4844C34.108 7.3554 34.0414 7.2894 33.9313 7.2894H33.0827C33.0106 7.28533 32.9391 7.30527 32.8786 7.34628C32.8182 7.3873 32.772 7.44726 32.7468 7.5174C32.7265 7.5824 32.7043 7.6364 32.683 7.7014L31.1818 12.1494C31.0766 12.4644 30.9598 12.7904 30.8546 13.1384C30.8333 13.0834 30.8227 13.0614 30.8121 13.0294C30.256 11.4424 29.7106 9.8564 29.1545 8.2684C29.0705 8.0074 28.9769 7.7554 28.8823 7.5054C28.8641 7.44501 28.8277 7.39232 28.7782 7.35519C28.7288 7.31806 28.6691 7.29849 28.6081 7.2994C28.2837 7.2894 27.9584 7.2894 27.6224 7.2894ZM16.9789 8.4204C17.3044 8.43367 17.6179 8.55178 17.8755 8.75827C18.1332 8.96476 18.3222 9.24935 18.4164 9.5724C18.5698 10.0353 18.6411 10.5232 18.6268 11.0124C18.6397 11.4611 18.5833 11.9091 18.4598 12.3394C18.357 12.7457 18.1147 13.0991 17.7782 13.3335C17.4418 13.5679 17.0343 13.667 16.6323 13.6124C16.0492 13.5693 15.4905 13.353 15.023 12.9894C14.9984 12.9767 14.9782 12.9564 14.965 12.9314C14.9519 12.9063 14.9465 12.8777 14.9496 12.8494V9.1594C14.9452 9.12946 14.9499 9.09884 14.9631 9.07178C14.9762 9.04473 14.9972 9.02258 15.023 9.0084C15.5877 8.57971 16.2804 8.37145 16.9789 8.4204ZM23.7898 11.3574C23.9695 11.3413 24.1503 11.3443 24.3295 11.3664C24.6866 11.3994 25.0448 11.4664 25.402 11.5174C25.4754 11.5284 25.4985 11.5614 25.4985 11.6264C25.4879 11.8444 25.4985 12.0514 25.4985 12.2694C25.4985 12.4874 25.4879 12.6834 25.4879 12.9014C25.4909 12.927 25.4864 12.953 25.475 12.9759C25.4637 12.9989 25.446 13.0179 25.4242 13.0304C24.955 13.3953 24.4006 13.6248 23.8178 13.6954C23.5775 13.73 23.3328 13.7039 23.1044 13.6194C22.976 13.57 22.8608 13.4899 22.768 13.3857C22.6752 13.2814 22.6076 13.1559 22.5705 13.0194C22.4888 12.7398 22.4851 12.442 22.5599 12.1604C22.6116 11.9924 22.703 11.8404 22.8257 11.7182C22.9484 11.596 23.0986 11.5074 23.2627 11.4604C23.4345 11.407 23.6111 11.3732 23.7898 11.3574ZM35.14 18.4774C34.2265 18.4639 33.3289 18.7259 32.5566 19.2314C32.3249 19.3984 32.3635 19.6314 32.6232 19.5994C33.4689 19.4944 35.3524 19.2574 35.6883 19.6994C36.0243 20.1414 35.3147 21.9834 35.001 22.8054C34.9044 23.0504 35.1091 23.1524 35.3263 22.9654C36.7339 21.7444 37.0997 19.1844 36.8111 18.8164C36.3005 18.5293 35.7174 18.411 35.14 18.4774ZM10.0995 19.4094C9.90641 19.4374 9.81856 19.6954 10.0242 19.8994C13.6736 23.3207 18.4585 25.1481 23.3785 24.9994C27.2937 25.0051 31.1132 23.7468 34.3059 21.3994C34.7944 21.0084 34.3783 20.4234 33.8772 20.6544C30.664 22.1159 27.1958 22.88 23.6865 22.8994C19.0162 23.0285 14.3996 21.843 10.3283 19.4694C10.261 19.4226 10.1802 19.4014 10.0995 19.4094Z" fill="white"/>
</svg>
