<svg width="47" height="32" viewBox="0 0 47 32" fill="none" xmlns="http://www.w3.org/2000/svg">
<path d="M42.4775 0H3.86159C1.72889 0 0 1.79086 0 4V28C0 30.2091 1.72889 32 3.86159 32H42.4775C44.6102 32 46.3391 30.2091 46.3391 28V4C46.3391 1.79086 44.6102 0 42.4775 0Z" fill="#333441"/>
<path d="M14.5443 9.23828C14.2652 9.26703 13.9944 9.35248 13.7472 9.48975C13.5001 9.62702 13.2815 9.81342 13.1039 10.0383C12.734 10.489 12.5477 11.071 12.5845 11.6613C12.8652 11.6645 13.1426 11.5991 13.3942 11.4704C13.6458 11.3416 13.8646 11.1531 14.0326 10.9203C14.4011 10.4461 14.5837 9.84562 14.5443 9.23828ZM19.2458 10.4523V19.5683H20.6388V16.5303H22.5455C22.9366 16.5433 23.3263 16.4752 23.6916 16.3299C24.0569 16.1846 24.3905 15.9651 24.6726 15.6842C24.9548 15.4034 25.1799 15.0669 25.3346 14.6946C25.4894 14.3223 25.5707 13.9217 25.5737 13.5164C25.5767 13.111 25.5014 12.7092 25.3523 12.3344C25.2031 11.9597 24.9831 11.6196 24.7051 11.3343C24.4272 11.049 24.0969 10.8241 23.7339 10.673C23.3708 10.5219 22.9821 10.4475 22.5909 10.4543L19.2458 10.4523ZM20.6388 11.6673H22.252C22.4978 11.6322 22.748 11.6539 22.9847 11.7308C23.2214 11.8078 23.4387 11.9381 23.621 12.1124C23.8033 12.2867 23.946 12.5006 24.039 12.7389C24.132 12.9771 24.1728 13.2337 24.1587 13.4903C24.1732 13.7469 24.1326 14.0037 24.0397 14.2421C23.9469 14.4806 23.8041 14.6947 23.6217 14.869C23.4393 15.0434 23.2219 15.1737 22.985 15.2505C22.7482 15.3273 22.4978 15.3488 22.252 15.3133H20.6388V11.6673ZM14.4796 11.9673C13.6735 11.9673 13.0962 12.4233 12.7197 12.4233C12.3432 12.4233 11.7668 11.9733 11.1065 11.9733C10.6916 11.9902 10.288 12.1184 9.93534 12.3454C9.58266 12.5724 9.29296 12.8904 9.09461 13.2683C8.23927 14.7963 8.87257 17.0583 9.69991 18.3023C10.1054 18.9183 10.5948 19.5683 11.2542 19.5683C11.8585 19.5443 12.0632 19.1883 12.794 19.1883C13.5248 19.1883 13.7469 19.5683 14.4072 19.5683C15.0675 19.5683 15.4691 18.9423 15.8717 18.3263C16.158 17.8903 16.3811 17.4132 16.534 16.9103C16.1523 16.7371 15.8272 16.453 15.5983 16.0923C15.3694 15.7316 15.2464 15.3099 15.2442 14.8783C15.2494 14.4952 15.3477 14.1196 15.5301 13.7863C15.7125 13.453 15.9731 13.1727 16.2878 12.9713C16.0909 12.6784 15.832 12.436 15.5308 12.2626C15.2296 12.0893 14.8942 11.9897 14.5501 11.9713L14.4796 11.9673ZM28.7472 12.8783C27.2875 12.8783 26.2082 13.7263 26.1686 14.8923H27.4063C27.481 14.6032 27.6535 14.3516 27.8924 14.1832C28.1313 14.0149 28.4206 13.9411 28.7076 13.9753C29.5485 13.9753 30.0225 14.3753 30.0225 15.1073V15.6133L28.3031 15.7073C26.7073 15.8073 25.8433 16.4693 25.8433 17.6243C25.85 17.9038 25.9132 18.1788 26.0286 18.4316C26.1441 18.6844 26.3093 18.9094 26.5137 19.0921C26.7181 19.2748 26.9571 19.4111 27.2154 19.4925C27.4737 19.5738 27.7455 19.5983 28.0135 19.5643C28.4196 19.5769 28.8215 19.4771 29.1779 19.2751C29.5343 19.0731 29.8322 18.7763 30.0408 18.4153H30.0698V19.4943H31.3412V15.0203C31.3432 13.7213 30.3218 12.8843 28.7482 12.8843L28.7472 12.8783ZM31.8568 12.8783L34.2085 19.5383L34.082 19.9383C34.0367 20.2193 33.8915 20.4726 33.6749 20.6482C33.4584 20.8239 33.1862 20.9092 32.9119 20.8873C32.8067 20.8873 32.6078 20.8763 32.5171 20.8643V21.9643C32.6881 21.9861 32.8603 21.9971 33.0326 21.9973C34.3842 21.9973 35.0223 21.4703 35.5793 19.8693L38.016 12.8833H36.6056L34.9711 18.2833H34.947L33.3126 12.8833L31.8568 12.8783ZM30.0225 16.5243V17.0513C30.0121 17.26 29.9607 17.4643 29.8715 17.6518C29.7822 17.8393 29.657 18.0059 29.5035 18.1415C29.35 18.2771 29.1714 18.3789 28.9786 18.4406C28.7858 18.5023 28.5829 18.5226 28.3823 18.5003C27.6496 18.5003 27.1842 18.1433 27.1842 17.5953C27.1842 17.0293 27.6331 16.7003 28.4914 16.6483L30.0225 16.5243Z" fill="white"/>
</svg>
