<svg width="47" height="32" viewBox="0 0 47 32" fill="none" xmlns="http://www.w3.org/2000/svg">
<path d="M7.04754 15.4398C6.82137 15.6441 6.55773 15.7989 6.27241 15.8952C5.98709 15.9914 5.68596 16.027 5.38705 15.9998H5.07812V11.7198H5.38705C5.68325 11.6889 5.98244 11.7189 6.2674 11.8081C6.55237 11.8974 6.81749 12.0441 7.04754 12.2398C7.26391 12.4411 7.43617 12.688 7.55274 12.964C7.6693 13.24 7.72746 13.5386 7.72332 13.8398C7.72561 14.1407 7.66661 14.4388 7.55016 14.7145C7.43372 14.9902 7.26245 15.2373 7.04754 15.4398Z" fill="#333441"/>
<path d="M42.4775 31.96H12.3571C12.9363 31.86 13.5252 31.717 14.0755 31.58L14.8092 31.42C27.4559 28.42 38.9355 23.886 45.5089 19.28C45.6257 19.191 45.7434 19.105 45.8574 19.022C46.0292 18.896 46.1895 18.779 46.3401 18.66V27.96C46.3401 28.4854 46.2402 29.0056 46.046 29.491C45.8519 29.9763 45.5674 30.4173 45.2087 30.7888C44.85 31.1602 44.4242 31.4548 43.9556 31.6558C43.4869 31.8568 42.9847 31.9601 42.4775 31.96ZM2.54768 31.76C1.80247 31.4789 1.15854 30.9675 0.70291 30.2951C0.247284 29.6226 0.00192826 28.8215 0 28L0 4C0 2.93913 0.406845 1.92172 1.13103 1.17157C1.85522 0.421427 2.83743 0 3.86159 0L42.4775 0C43.5017 0 44.4839 0.421427 45.2081 1.17157C45.9323 1.92172 46.3391 2.93913 46.3391 4V16.14C45.8178 16.591 45.2048 17.067 44.4083 17.64C38.0531 22.1 26.8294 26.515 14.3844 29.46C14.1363 29.516 13.8882 29.575 13.6401 29.633C13.1024 29.76 12.5463 29.89 11.9902 30C8.66831 30.736 5.57903 31.312 2.54865 31.76H2.54768ZM24.3203 17.26H24.328C25.2016 17.2574 26.0384 16.8957 26.6547 16.2545C27.271 15.6132 27.6165 14.7449 27.6152 13.84C27.6139 12.9352 27.266 12.0678 26.6479 11.4285C26.0297 10.7891 25.1919 10.43 24.3184 10.43C23.4448 10.43 22.607 10.7891 21.9889 11.4285C21.3707 12.0678 21.0228 12.9352 21.0215 13.84C21.0203 14.7449 21.3657 15.6132 21.982 16.2545C22.5984 16.8957 23.4352 17.2574 24.3087 17.26H24.3203ZM27.2628 10.68L29.8887 17.26H30.5452L33.1518 10.64H31.8581L30.2363 14.98L28.5758 10.68H27.2628ZM13.3225 17.2C13.6049 17.2349 13.8912 17.2069 14.1624 17.118C14.4335 17.0291 14.6832 16.8812 14.8948 16.6843C15.1063 16.4875 15.2749 16.2461 15.3891 15.9763C15.5034 15.7065 15.5608 15.4146 15.5574 15.12C15.5574 14.102 15.1374 13.635 13.7617 13.12C13.0136 12.842 12.7963 12.7 12.7963 12.3C12.7963 11.9 13.17 11.6 13.6855 11.6C13.8742 11.6036 14.0596 11.6524 14.2271 11.7426C14.3946 11.8328 14.5397 11.962 14.6509 12.12L15.288 11.26C14.7941 10.7963 14.1513 10.5396 13.4847 10.54H13.4576H13.3611C12.884 10.5398 12.4256 10.7321 12.0832 11.0762C11.7407 11.4203 11.5412 11.889 11.5269 12.383C11.5269 13.267 11.9256 13.727 13.0522 14.143C13.4383 14.286 13.6584 14.39 13.8052 14.459L13.9017 14.503C14.0095 14.5777 14.0976 14.6789 14.1583 14.7976C14.219 14.9163 14.2502 15.0487 14.2493 15.183C14.2499 15.3016 14.2279 15.4192 14.1845 15.529C14.1411 15.6387 14.0772 15.7385 13.9965 15.8226C13.9158 15.9067 13.8198 15.9735 13.714 16.019C13.6083 16.0646 13.4949 16.088 13.3804 16.088C13.3482 16.0882 13.3159 16.0865 13.2839 16.083H13.2684C12.9933 16.0822 12.7239 16.0011 12.4911 15.849C12.2584 15.6969 12.0718 15.4799 11.9526 15.223L11.1803 16.003C11.3967 16.3686 11.6997 16.6708 12.0606 16.8808C12.4216 17.0908 12.8284 17.2018 13.2424 17.203L13.3225 17.2ZM19.1149 10.44C18.256 10.4382 17.4315 10.7892 16.8221 11.416C16.2102 12.0483 15.8634 12.9048 15.8567 13.8C15.852 14.2451 15.9332 14.6866 16.0955 15.0987C16.2578 15.5109 16.4979 15.8853 16.8018 16.2C17.0986 16.5071 17.451 16.7504 17.8389 16.916C18.2267 17.0816 18.6423 17.1662 19.0618 17.165H19.1197C19.6433 17.1598 20.1587 17.0294 20.6257 16.784V15.3C20.4466 15.517 20.2246 15.6917 19.9749 15.8125C19.7251 15.9332 19.4533 15.9972 19.1776 16H19.1303C18.8591 16.0011 18.5903 15.9455 18.3403 15.8365C18.0903 15.7276 17.864 15.5674 17.6751 15.3658C17.4862 15.1641 17.3385 14.9251 17.2408 14.6629C17.1432 14.4007 17.0976 14.1208 17.1068 13.84C17.0965 13.5566 17.1412 13.274 17.2382 13.0088C17.3352 12.7436 17.4825 12.5012 17.6716 12.2961C17.8606 12.091 18.0875 11.9272 18.3387 11.8145C18.5899 11.7018 18.8604 11.6425 19.1342 11.64H19.1545C19.4381 11.6395 19.7184 11.7038 19.9753 11.8282C20.2323 11.9527 20.4596 12.1342 20.6412 12.36L20.6209 10.84C20.1661 10.5781 19.6545 10.4405 19.1342 10.44H19.1149ZM33.7889 10.64V17.1H37.1678V16H34.9474V14.28H37.0906V13.18H34.9474V11.76H37.1871L37.1678 10.64H33.7889ZM39.1952 14.5H39.3689L41.0487 17.08L42.4775 17L40.5467 14.36C40.9693 14.293 41.351 14.0608 41.6132 13.711C41.8754 13.3613 41.9982 12.9207 41.9562 12.48C41.9562 11.285 41.1539 10.6 39.7551 10.6H37.9788V17H39.1952V14.5ZM9.51882 10.64V17.06H10.7352L10.7159 10.64H9.51882ZM3.86159 10.64V17.04H5.61862C5.68233 17.04 5.74701 17.046 5.8117 17.046C6.54663 17.0444 7.26006 16.7889 7.83903 16.32C8.32798 15.8956 8.67903 15.3256 8.84455 14.6874C9.01006 14.0493 8.98202 13.3738 8.76423 12.7527C8.54644 12.1316 8.14945 11.5949 7.62713 11.2156C7.10481 10.8362 6.48245 10.6324 5.84452 10.632C5.76922 10.632 5.69392 10.632 5.61862 10.64H3.86159ZM42.4775 10.4C42.3495 10.4 42.2267 10.4527 42.1362 10.5464C42.0457 10.6402 41.9948 10.7674 41.9948 10.9C41.9936 10.9635 42.0048 11.0266 42.0277 11.0855C42.0506 11.1445 42.0847 11.198 42.128 11.243C42.2125 11.3306 42.3271 11.3799 42.4466 11.38H42.4592L42.4196 11.34C42.4482 11.3458 42.4773 11.3488 42.5065 11.349C42.6083 11.3492 42.7072 11.314 42.7874 11.249C42.839 11.2073 42.8811 11.1545 42.911 11.0942C42.9408 11.034 42.9576 10.9677 42.9602 10.9C42.9602 10.7674 42.9094 10.6402 42.8188 10.5464C42.7283 10.4527 42.6055 10.4 42.4775 10.4ZM39.5813 13.58H39.1952V11.64H39.5813C40.3536 11.64 40.7398 11.956 40.7398 12.581C40.7398 13.234 40.3391 13.58 39.5813 13.58ZM42.4669 11.32H42.4582C42.3751 11.3176 42.2951 11.287 42.2304 11.233C42.2827 11.2621 42.3409 11.2778 42.4003 11.279H42.4109H42.4466C42.3765 11.2723 42.3096 11.2452 42.2535 11.201H42.3008V10.96L42.4775 11.2H42.6146C42.5676 11.2432 42.509 11.2704 42.4466 11.278H42.4775H42.4881C42.5632 11.2779 42.6356 11.2495 42.6918 11.198H42.632C42.6429 11.1852 42.6532 11.1719 42.6629 11.158H42.7304C42.7198 11.169 42.7082 11.181 42.6967 11.192H42.714C42.6853 11.2318 42.648 11.2641 42.6051 11.2863C42.5622 11.3085 42.5149 11.3201 42.4669 11.32ZM42.1686 11.19C42.1225 11.1503 42.0863 11.0997 42.0631 11.0424C42.0399 10.9851 42.0304 10.9229 42.0354 10.861C42.0327 10.8094 42.0403 10.7579 42.0575 10.7094C42.0748 10.661 42.1014 10.6167 42.1357 10.5793C42.1701 10.5418 42.2114 10.512 42.2572 10.4917C42.303 10.4714 42.3524 10.4609 42.4022 10.461H42.4215C42.3404 10.4738 42.2656 10.5143 42.2091 10.576H42.1666V10.63C42.1559 10.6472 42.1465 10.6652 42.1387 10.684C42.1024 10.7477 42.0849 10.8211 42.0885 10.895C42.0812 10.9912 42.1088 11.0867 42.1657 11.163V11.186L42.1686 11.19ZM42.6262 11.19L42.6059 11.161L42.4592 10.941L42.4775 10.933C42.5043 10.923 42.5278 10.905 42.5449 10.8814C42.5621 10.8578 42.5722 10.8295 42.574 10.8C42.5745 10.7913 42.5745 10.7827 42.574 10.774C42.5634 10.674 42.491 10.621 42.3636 10.621H42.1879H42.1927C42.2062 10.608 42.2188 10.597 42.2323 10.586C42.297 10.5343 42.3764 10.5061 42.4582 10.506L42.4234 10.47H42.437C42.4992 10.4798 42.5581 10.506 42.6078 10.546L42.5943 10.536C42.6259 10.5567 42.6537 10.5831 42.6764 10.614C42.7072 10.6553 42.7295 10.7027 42.742 10.7532C42.7544 10.8038 42.7567 10.8565 42.7488 10.908C42.747 11.0015 42.7177 11.0922 42.6648 11.168H42.6513C42.6476 11.1738 42.6434 11.1791 42.6387 11.184L42.6262 11.19Z" fill="#333441"/>
</svg>
