<svg width="47" height="32" viewBox="0 0 47 32" fill="none" xmlns="http://www.w3.org/2000/svg">
<path d="M42.4775 0H3.86159C1.72889 0 0 1.79086 0 4V28C0 30.2091 1.72889 32 3.86159 32H42.4775C44.6102 32 46.3391 30.2091 46.3391 28V4C46.3391 1.79086 44.6102 0 42.4775 0Z" fill="#333441"/>
<path d="M21.6469 15.0662L21.3216 16.7502C21.2823 17.0842 21.1195 17.3894 20.8674 17.6016C20.6154 17.8138 20.2937 17.9166 19.97 17.8882C19.0394 17.8882 18.7932 17.2882 18.9979 16.4492C19.2875 15.2552 20.2268 14.8992 21.6469 15.0662ZM23.1134 12.6582L22.1238 12.7242L21.8111 14.3732C21.4326 14.3592 21.3139 14.3462 20.8688 14.3462C20.2269 14.2655 19.5783 14.4258 19.0407 14.7981C18.5031 15.1703 18.1122 15.7299 17.9388 16.3752C17.6492 17.6572 18.353 18.6532 19.887 18.6532C20.479 18.7195 21.0725 18.5426 21.54 18.1606C22.0075 17.7786 22.3117 17.222 22.3874 16.6102L23.1134 12.6582Z" fill="white"/>
<path d="M12.373 15.1373C10.9249 15.0003 9.66991 15.1253 9.65253 15.6373C9.62164 16.4043 12.0448 15.7373 11.9984 17.1453C11.9309 19.2153 8.56067 18.7383 7.72656 18.4753L7.87813 17.8623C9.31561 18.0993 10.8322 18.1183 10.866 17.2973C10.9018 16.4243 8.46799 17.2093 8.52495 15.7973C8.56742 14.7443 10.0879 14.1763 12.5796 14.5553L12.375 15.1423" fill="white"/>
<path d="M16.2873 16.547C16.2083 16.9431 16.0004 17.2991 15.6983 17.5554C15.3962 17.8117 15.0182 17.9528 14.6278 17.955C13.8033 17.955 13.4326 17.455 13.6537 16.547C13.733 16.1462 13.9412 15.7851 14.2441 15.5227C14.5471 15.2602 14.927 15.1119 15.3219 15.102C16.1096 15.102 16.4977 15.683 16.2873 16.547ZM15.4483 14.394C14.8012 14.3536 14.1604 14.5457 13.6342 14.938C13.108 15.3302 12.7285 15.8985 12.5599 16.547C12.2703 17.836 13.0503 18.7 14.4907 18.7C15.1378 18.7401 15.7785 18.5479 16.3047 18.1557C16.8308 17.7635 17.2103 17.1953 17.3791 16.547C17.6659 15.259 16.8887 14.394 15.4464 14.394H15.4483Z" fill="white"/>
<path d="M32.1281 18.6776H30.8731C29.6226 17.399 28.5195 15.9745 27.5859 14.4326H28.5069C29.5216 15.8866 32.1281 18.6776 32.1281 18.6776Z" fill="white"/>
<path d="M33.4395 10.246L34.0187 9L34.1829 10.267L35.3597 9.84L34.5371 10.933L35.4292 11.649L34.2388 11.749L34.1732 13.067L33.5109 12.093L32.5378 13.022L32.9018 11.713L31.7539 11.552L32.8709 10.893L32.4113 9.76L33.4395 10.246Z" fill="white"/>
<path d="M35.8857 16.5595C35.8054 16.9618 35.5942 17.3234 35.2873 17.5837C34.9805 17.844 34.5967 17.9872 34.2001 17.9895C33.3631 17.9895 32.9856 17.4895 33.2106 16.5595C33.291 16.1525 33.5022 15.7858 33.8097 15.5192C34.1173 15.2526 34.503 15.1018 34.9039 15.0915C35.7042 15.0915 36.099 15.6815 35.8857 16.5595ZM35.0332 14.3715C34.3757 14.3307 33.7247 14.5261 33.1901 14.9247C32.6554 15.3233 32.2699 15.9007 32.0984 16.5595C31.8088 17.8685 32.5975 18.7465 34.063 18.7465C34.7205 18.7877 35.3716 18.5926 35.9063 18.1942C36.4409 17.7957 36.8265 17.2183 36.9978 16.5595C37.2884 15.2505 36.4987 14.3715 35.0332 14.3715Z" fill="white"/>
<path d="M26.6328 18.3159C28.8821 16.9355 30.8762 15.1513 32.5217 13.0469C31.4724 16.4469 28.9498 18.2809 26.6328 18.3159Z" fill="white"/>
<path d="M25.6908 15.025C26.1446 15.025 26.3917 15.196 26.3917 15.525C26.3917 16.39 24.7631 16.333 24.0448 16.181C24.1711 15.8366 24.397 15.5409 24.6916 15.3346C24.9862 15.1282 25.3352 15.0211 25.6908 15.028M27.3677 15.477C27.3677 14.85 26.885 14.389 25.7893 14.389C25.4246 14.3523 25.0565 14.3935 24.7078 14.5102C24.3591 14.6268 24.0372 14.8164 23.7622 15.0672C23.4871 15.318 23.2647 15.6247 23.1087 15.9681C22.9528 16.3116 22.8666 16.6846 22.8555 17.064C22.8555 18.019 23.621 18.813 25.0189 18.813C25.5893 18.8154 26.1479 18.6443 26.6253 18.321C25.3993 18.457 23.8942 18.321 23.8942 16.962C23.8942 16.908 23.8942 16.854 23.901 16.801C25.5769 17.156 27.3677 16.721 27.3677 15.474V15.477Z" fill="white"/>
</svg>
