<svg width="47" height="32" viewBox="0 0 47 32" fill="none" xmlns="http://www.w3.org/2000/svg">
<path d="M42.4775 0H3.86159C1.72889 0 0 1.79086 0 4V28C0 30.2091 1.72889 32 3.86159 32H42.4775C44.6102 32 46.3391 30.2091 46.3391 28V4C46.3391 1.79086 44.6102 0 42.4775 0Z" fill="#333441"/>
<path d="M16.201 6L12.5508 23.388H17.3894L18.5787 17.63H22.0358C23.6431 17.6781 25.2142 17.1304 26.4663 16.0855C27.7184 15.0405 28.5694 13.567 28.866 11.93C29.7069 7.858 26.8927 6 24.4696 6H16.201ZM20.3213 9.552H22.672C22.9497 9.54581 23.2247 9.61014 23.4729 9.73935C23.7211 9.86857 23.935 10.0588 24.0959 10.2933C24.2569 10.5279 24.3599 10.7996 24.3961 11.0849C24.4323 11.3702 24.4005 11.6604 24.3035 11.93C24.1496 12.5805 23.798 13.1627 23.3006 13.5906C22.8032 14.0186 22.1862 14.2697 21.5406 14.307H19.27L20.3213 9.552ZM30.9406 10.984C30.9424 11.5518 30.8868 12.1182 30.7746 12.674C30.4765 14.1967 29.8105 15.6163 28.839 16.8C28.6475 17.3906 28.2896 17.9083 27.8114 18.2862C27.3332 18.6641 26.7567 18.8848 26.1561 18.92H26.1011C24.9264 19.4606 23.6533 19.7334 22.3679 19.72H20.2102L19.2979 24.16L19.0218 25.478H17.6944L17.1683 28H22.0078L23.1972 22.242H26.6572C28.2673 22.2837 29.8391 21.73 31.0909 20.6801C32.3427 19.6303 33.1926 18.153 33.4883 16.513C34.1072 13.491 32.6899 11.711 30.9406 10.984Z" fill="white"/>
</svg>
