<svg width="47" height="32" viewBox="0 0 47 32" fill="none" xmlns="http://www.w3.org/2000/svg">
<path d="M42.4775 0H3.86159C1.72889 0 0 1.79086 0 4V28C0 30.2091 1.72889 32 3.86159 32H42.4775C44.6102 32 46.3391 30.2091 46.3391 28V4C46.3391 1.79086 44.6102 0 42.4775 0Z" fill="#333441"/>
<path d="M23.7115 10.1849C23.4582 10.2398 23.2308 10.3832 23.0675 10.5911C22.9042 10.7991 22.8149 11.0589 22.8146 11.3269C22.8161 11.4786 22.8465 11.6286 22.904 11.7681C22.9615 11.9076 23.045 12.0341 23.1498 12.1401C23.2545 12.2462 23.3784 12.3299 23.5144 12.3863C23.6504 12.4427 23.7957 12.4708 23.9422 12.4689C24.087 12.4689 24.2303 12.4394 24.3641 12.382C24.4979 12.3246 24.6194 12.2405 24.7218 12.1344C24.8242 12.0284 24.9054 11.9025 24.9608 11.764C25.0162 11.6254 25.0447 11.4769 25.0447 11.3269C25.0447 11.177 25.0162 11.0285 24.9608 10.8899C24.9054 10.7513 24.8242 10.6255 24.7218 10.5194C24.6194 10.4134 24.4979 10.3292 24.3641 10.2719C24.2303 10.2145 24.087 10.1849 23.9422 10.1849C23.8655 10.1766 23.7882 10.1766 23.7115 10.1849ZM16.2518 11.1939L14.4572 11.5129L14.2004 13.1589L13.5593 13.2649L13.3286 14.7789H14.1975V17.9659C14.1641 18.2833 14.2022 18.6044 14.3089 18.9039C14.4156 19.2034 14.588 19.4731 14.8124 19.6919C15.2584 20.0239 15.8026 20.1834 16.3503 20.1429C16.7314 20.1434 17.1108 20.0899 17.4779 19.9839V18.2559C17.277 18.3131 17.0709 18.3486 16.8629 18.3619C16.4469 18.3619 16.248 18.1459 16.248 17.6449V14.7779H17.3553L17.6121 13.1579H16.2518V11.1939ZM10.7906 13.0249C10.1727 12.9968 9.56486 13.1943 9.07314 13.5829C8.85332 13.7735 8.67888 14.0141 8.56335 14.2858C8.44782 14.5576 8.39433 14.8533 8.40702 15.1499C8.40702 16.3449 9.10597 16.8689 10.2529 17.3009C10.9933 17.5729 11.2269 17.7719 11.2269 18.0709C11.2269 18.3699 10.9933 18.5219 10.5608 18.5219C9.85675 18.4673 9.17351 18.2496 8.56148 17.8849L8.30469 19.5309C9.03216 19.9276 9.84107 20.1371 10.6632 20.1419C11.3128 20.1714 11.9534 19.9749 12.4829 19.5839C12.7232 19.379 12.9135 19.1183 13.0383 18.8229C13.1631 18.5275 13.2189 18.2058 13.2012 17.8839C13.2012 16.6629 12.4926 16.1649 11.3302 15.7329C10.7085 15.4939 10.3562 15.3079 10.3562 15.0159C10.3562 14.7699 10.5492 14.6439 10.8948 14.6439C11.5027 14.6697 12.0978 14.8329 12.6384 15.1219L12.8952 13.4759C12.2338 13.1684 11.5155 13.0145 10.7906 13.0249ZM29.5811 13.0249C29.2664 13.0314 28.9568 13.1083 28.6735 13.2503C28.3902 13.3924 28.14 13.5962 27.9399 13.8479L27.8376 13.1579H25.9676V22.5319L28.0915 22.1599V19.9849C28.3982 20.0873 28.7182 20.141 29.0405 20.1439C29.3905 20.1495 29.7378 20.0791 30.06 19.9374C30.3822 19.7956 30.6722 19.5857 30.9114 19.3209C31.546 18.4853 31.8559 17.4342 31.7803 16.3739C31.8455 15.4581 31.6205 14.5452 31.1392 13.7739C30.9565 13.5291 30.7197 13.3333 30.4487 13.2029C30.1778 13.0726 29.8805 13.0115 29.5821 13.0249H29.5811ZM35.5028 13.0249C33.712 13.0249 32.5806 14.4089 32.5806 16.6099C32.5434 17.105 32.6038 17.6027 32.7579 18.0728C32.9121 18.543 33.1569 18.9757 33.4774 19.3449C33.7843 19.6253 34.1415 19.8402 34.5287 19.9775C34.9158 20.1147 35.3252 20.1716 35.7336 20.1449C36.5235 20.1718 37.3049 19.9695 37.9897 19.5609L37.759 18.0739C37.205 18.3704 36.5876 18.5166 35.9643 18.4989C35.6438 18.5288 35.3241 18.434 35.0674 18.2329C34.8218 17.9797 34.683 17.6359 34.6813 17.2769H38.1673C38.177 17.1709 38.1934 16.6659 38.1934 16.5069C38.2402 15.6015 37.9969 14.7053 37.5012 13.9579C37.2654 13.6476 36.9608 13.4007 36.6132 13.2383C36.2657 13.0759 35.8855 13.0027 35.5048 13.0249H35.5028ZM21.66 13.0519C21.3844 13.0382 21.1121 13.1189 20.8852 13.2816C20.6583 13.4443 20.4896 13.6799 20.405 13.9519L20.2766 13.1519H18.4307V20.0029H20.5324V15.5479C20.6772 15.3844 20.857 15.2584 21.0574 15.18C21.2578 15.1017 21.4731 15.0732 21.6861 15.0969C21.8063 15.0938 21.9266 15.1029 22.0452 15.1239V13.1049C21.9195 13.0721 21.7896 13.0543 21.66 13.0519ZM22.8648 13.1579V20.0089H24.9887V13.1579H22.8648ZM35.2982 14.5119C35.3491 14.5053 35.4007 14.5053 35.4517 14.5119C35.9257 14.5119 36.1883 14.9769 36.224 15.9459H34.6601C34.7093 15.0929 34.9255 14.6119 35.2991 14.5119H35.2982ZM28.8889 14.6979C29.4237 14.6979 29.6834 15.2789 29.6834 16.4509C29.7151 16.9806 29.6182 17.51 29.4015 17.9909C29.3362 18.1387 29.2316 18.2642 29.0999 18.3527C28.9683 18.4413 28.8151 18.4892 28.6582 18.4909C28.4628 18.4929 28.2697 18.4474 28.0944 18.3579V15.1179C28.192 14.995 28.313 14.8943 28.4498 14.822C28.5867 14.7497 28.7356 14.7075 28.8889 14.6979Z" fill="white"/>
</svg>
