<svg width="47" height="32" viewBox="0 0 47 32" fill="none" xmlns="http://www.w3.org/2000/svg">
<path d="M42.4775 32H3.86159C2.83743 32 1.85522 31.5786 1.13103 30.8284C0.406845 30.0783 0 29.0609 0 28V4C0 2.93913 0.406845 1.92172 1.13103 1.17157C1.85522 0.421427 2.83743 0 3.86159 0L42.4775 0C43.5017 0 44.4839 0.421427 45.2081 1.17157C45.9323 1.92172 46.3391 2.93913 46.3391 4V28C46.3391 29.0609 45.9323 30.0783 45.2081 30.8284C44.4839 31.5786 43.5017 32 42.4775 32ZM16.8172 5.389C15.2688 5.38803 13.7404 5.75067 12.3467 6.44965C10.9531 7.14864 9.73059 8.16578 8.77108 9.42462C7.81157 10.6835 7.14004 12.1512 6.80698 13.7176C6.47392 15.2839 6.48799 16.9081 6.84814 18.468C7.20829 20.0279 7.90514 21.483 8.8863 22.7238C9.86746 23.9646 11.1074 24.9588 12.5129 25.6318C13.9184 26.3048 15.4529 26.6389 17.0011 26.6092C18.5492 26.5794 20.0707 26.1865 21.4511 25.46C20.156 24.2753 19.1182 22.8196 18.4059 21.1889C17.6937 19.5583 17.3233 17.7898 17.3192 16C17.3107 14.2081 17.6754 12.4355 18.3885 10.8029C19.1016 9.17033 20.1462 7.7163 21.4511 6.54C20.0148 5.78573 18.4276 5.39147 16.8172 5.389ZM29.4833 5.4C27.8803 5.40211 26.3 5.79251 24.8687 6.54C25.4361 7.03815 25.9536 7.59429 26.4133 8.2C28.3302 10.7366 29.2398 13.9356 28.9563 17.1434C28.6728 20.3513 27.2176 23.3261 24.888 25.46C26.2682 26.1827 27.7886 26.572 29.3349 26.5985C30.8813 26.6251 32.4133 26.2882 33.8159 25.6133C35.2185 24.9384 36.4551 23.9429 37.4329 22.7017C38.4107 21.4606 39.1042 20.006 39.4613 18.4473C39.8183 16.8886 39.8297 15.2663 39.4945 13.7024C39.1593 12.1385 38.4862 10.6737 37.5259 9.41795C36.5656 8.16224 35.343 7.14832 33.95 6.4524C32.557 5.75648 31.0298 5.39667 29.4833 5.4ZM23.1696 7.66C21.9491 8.65172 20.9623 9.91785 20.2837 11.3627C19.6051 12.8075 19.2525 14.3932 19.2525 16C19.2525 17.6068 19.6051 19.1925 20.2837 20.6373C20.9623 22.0822 21.9491 23.3483 23.1696 24.34C24.3884 23.3472 25.3737 22.0807 26.0512 20.636C26.7287 19.1913 27.0807 17.6061 27.0807 16C27.0807 14.3939 26.7287 12.8087 26.0512 11.364C25.3737 9.91935 24.3884 8.65284 23.1696 7.66Z" fill="#333441"/>
<path d="M39.0413 22.5712H38.9641V22.1602H39.0703L39.1861 22.4502L39.3116 22.1602H39.4081V22.5692H39.3406V22.2602L39.2344 22.5302H39.1571L39.0413 22.2602V22.5702V22.5712ZM38.7517 22.5702H38.6937V22.2302H38.5586V22.1602H38.8965V22.2302H38.7517V22.5702Z" fill="#333441"/>
</svg>
