<svg width="47" height="32" viewBox="0 0 47 32" fill="none" xmlns="http://www.w3.org/2000/svg">
<path d="M21.6427 17.0395C20.5429 17.0395 19.4678 16.7017 18.5534 16.0688C17.6389 15.4359 16.9262 14.5363 16.5053 13.4838C16.0844 12.4313 15.9743 11.2731 16.1889 10.1558C16.4034 9.03848 16.933 8.01215 17.7107 7.2066C18.4884 6.40105 19.4792 5.85246 20.5579 5.63021C21.6366 5.40796 22.7546 5.52203 23.7707 5.95799C24.7868 6.39395 25.6553 7.13222 26.2663 8.07945C26.8773 9.02668 27.2034 10.1403 27.2034 11.2795C27.2016 12.8066 26.6152 14.2706 25.5728 15.3504C24.5303 16.4302 23.117 17.0377 21.6427 17.0395ZM22.8977 7.87953V14.6995C23.5622 14.4302 24.1329 13.9599 24.5358 13.35C24.9387 12.74 25.1551 12.0186 25.1568 11.2795C25.1591 10.542 24.944 9.82129 24.5404 9.21374C24.1367 8.60618 23.5636 8.14071 22.8977 7.87953ZM20.3877 7.87953C19.719 8.13857 19.1427 8.60297 18.7358 9.21059C18.3289 9.8182 18.1109 10.54 18.1109 11.2795C18.1109 12.019 18.3289 12.7409 18.7358 13.3485C19.1427 13.9561 19.719 14.4205 20.3877 14.6795V7.87953Z" fill="#333441"/>
<path d="M42.4775 32H3.86159C2.83743 32 1.85522 31.5786 1.13103 30.8284C0.406845 30.0783 0 29.0609 0 28V4C0 2.93913 0.406845 1.92172 1.13103 1.17157C1.85522 0.421427 2.83743 0 3.86159 0L42.4775 0C43.5017 0 44.4839 0.421427 45.2081 1.17157C45.9323 1.92172 46.3391 2.93913 46.3391 4V28C46.3391 29.0609 45.9323 30.0783 45.2081 30.8284C44.4839 31.5786 43.5017 32 42.4775 32ZM29.1261 24.39C28.96 24.3894 28.7955 24.4229 28.642 24.4887C28.4886 24.5544 28.3492 24.6511 28.2321 24.773C28.1139 24.8963 28.0204 25.0425 27.957 25.2033C27.8935 25.3641 27.8614 25.5363 27.8623 25.71C27.8597 25.8783 27.8893 26.0455 27.9496 26.2018C28.0099 26.3582 28.0997 26.5005 28.2136 26.6206C28.3275 26.7406 28.4634 26.836 28.6132 26.9011C28.7631 26.9663 28.924 26.9999 29.0865 27H29.155H29.1956C29.3635 27.0003 29.5298 26.966 29.6848 26.899C29.8397 26.8321 29.9803 26.7338 30.0982 26.61C30.221 26.4813 30.317 26.328 30.3804 26.1595C30.4438 25.991 30.4733 25.8108 30.467 25.63C30.4632 25.2985 30.3335 24.9819 30.106 24.7487C29.8786 24.5155 29.5716 24.3845 29.2516 24.384C29.2129 24.384 29.1743 24.384 29.1357 24.39H29.1261ZM34.5709 24.4C34.4737 24.4619 34.3701 24.5123 34.262 24.55C34.246 24.6143 34.225 24.6772 34.1992 24.738C34.1607 24.8204 34.1362 24.909 34.1268 25L33.5572 26.64C33.5392 26.7027 33.5023 26.7579 33.452 26.7974C33.4016 26.837 33.3404 26.8589 33.2773 26.86V27H34.0592V26.86C33.899 26.86 33.8179 26.823 33.8179 26.75C33.8335 26.6572 33.8594 26.5666 33.8951 26.48L34.0013 26.12H34.7543L34.8798 26.52C34.9109 26.6002 34.9336 26.6837 34.9474 26.769C34.9474 26.859 34.8316 26.859 34.7543 26.859H34.735V27H35.7197L35.5363 26.84H35.5112C35.4709 26.8403 35.4314 26.8279 35.398 26.8046C35.3645 26.7812 35.3387 26.7479 35.3239 26.709C35.2785 26.596 35.2361 26.475 35.1974 26.349L34.5699 24.489L34.5709 24.4ZM23.4109 24.4C23.3105 24.4616 23.204 24.5119 23.0933 24.55C23.0586 24.7031 23.0134 24.8535 22.9581 25L22.4465 26.64C22.4255 26.7028 22.3865 26.7575 22.3348 26.7968C22.2831 26.8361 22.221 26.8582 22.1568 26.86V27H22.9388V26.86H22.8799C22.7901 26.86 22.6395 26.846 22.6395 26.75C22.6544 26.6572 22.6801 26.5665 22.7158 26.48L22.823 26.12H23.575L23.7102 26.52C23.7421 26.5999 23.7648 26.6835 23.7778 26.769C23.7778 26.859 23.66 26.859 23.5741 26.859H23.5267V27H24.5115L24.4728 26.81H24.4477C24.4072 26.81 24.3676 26.7974 24.3341 26.7739C24.3005 26.7504 24.2745 26.717 24.2595 26.678C24.2469 26.642 24.2344 26.604 24.2209 26.565C24.1938 26.484 24.1658 26.399 24.134 26.318L23.409 24.488L23.4109 24.4ZM16.991 26.86V27H18.0722V26.87H17.995C17.8319 26.87 17.7247 26.87 17.7247 26.6V25.86H17.9274C18.1393 26.257 18.378 26.6379 18.6418 27H19.308L19.3273 26.86C19.2607 26.8589 19.1958 26.8387 19.1397 26.8016C19.0837 26.7645 19.0386 26.712 19.0096 26.65L18.4304 25.76C18.5644 25.722 18.6829 25.6401 18.7681 25.5265C18.8534 25.413 18.9009 25.2738 18.9035 25.13C18.9035 24.705 18.6245 24.49 18.0732 24.49H16.991V24.63H17.0673C17.1764 24.63 17.299 24.63 17.299 24.879V26.679C17.299 26.788 17.2082 26.859 17.0673 26.859L16.991 26.86ZM30.5548 26.86V27H31.4623V26.79H31.3947C31.1293 26.79 31.0868 26.69 31.0868 26.39V24.97L32.8245 26.97H32.95C32.9405 26.8535 32.9405 26.7365 32.95 26.62V25C32.95 24.612 33.0832 24.58 33.2203 24.58H33.2879V24.44H32.3901V24.58H32.4866C32.5706 24.58 32.7666 24.611 32.7666 24.9V26.24L31.2596 24.49H30.5548V24.63H30.6311C30.6688 24.6297 30.7062 24.6373 30.741 24.6524C30.7758 24.6675 30.8072 24.6897 30.8335 24.7178C30.8598 24.7458 30.8803 24.7791 30.8938 24.8156C30.9073 24.852 30.9135 24.891 30.912 24.93V26.43C30.912 26.73 30.8281 26.859 30.6224 26.859L30.5548 26.86ZM26.7512 26.86V27H27.7938V26.86H27.7262C27.594 26.86 27.4849 26.846 27.4849 26.67V24.82C27.4945 24.63 27.6017 24.63 27.7262 24.63H27.7938V24.44H26.7512V24.58H26.8091C26.9404 24.58 27.0495 24.594 27.0495 24.77V26.67C27.0495 26.86 26.9327 26.86 26.8091 26.86H26.7512ZM24.9266 26.86V27H26.0657V26.87H25.9885C25.8254 26.87 25.7182 26.85 25.7182 26.579V24.71H26.2685C26.5002 24.71 26.5002 24.9 26.5002 25.039L26.6257 24.989C26.6257 24.889 26.6257 24.789 26.6257 24.698V24.408L26.6459 24.359H26.5494C26.5388 24.449 26.4741 24.449 26.3756 24.449H24.5983C24.5134 24.449 24.4246 24.449 24.4246 24.359H24.3087C24.3183 24.4554 24.3183 24.5526 24.3087 24.649V24.959H24.4439L24.4487 24.932C24.4931 24.692 24.5008 24.649 24.7431 24.649H25.2838V26.579C25.2741 26.859 25.1979 26.859 25.0135 26.859L24.9266 26.86ZM19.3659 26.86V27H20.2734V26.79H20.1865C19.9413 26.79 19.8785 26.708 19.8785 26.39V24.97L21.6162 26.97H21.7803V25C21.79 24.611 21.9213 24.58 22.0796 24.58H22.1472V24.44H21.2388V24.58H21.2967C21.3807 24.58 21.5766 24.611 21.5766 24.9V26.19L20.0803 24.44H19.3659V24.58H19.4335C19.5085 24.5803 19.5805 24.6108 19.6343 24.665C19.6622 24.6929 19.6845 24.7262 19.6997 24.7632C19.715 24.8001 19.7229 24.8398 19.7231 24.88V26.42C19.7144 26.698 19.6623 26.859 19.4238 26.859L19.3659 26.86ZM13.0522 26.86V27H14.1817V26.88H14.0948C13.9423 26.88 13.8342 26.859 13.8342 26.589V24.72H14.3748C14.6161 24.72 14.6161 24.91 14.6161 25.049L14.7416 24.999V24.37H14.7513L14.7416 24.36V24.37H14.6547C14.6451 24.46 14.5765 24.46 14.481 24.46H12.695C12.61 24.46 12.5212 24.46 12.5212 24.37H12.415C12.4202 24.4666 12.4202 24.5634 12.415 24.66V24.96H12.5502L12.5618 24.907C12.6081 24.695 12.6178 24.651 12.8591 24.651H13.3997V26.581C13.3997 26.861 13.3206 26.861 13.1294 26.861L13.0522 26.86ZM9.48986 26.86V27H10.3973V26.8H10.3201C10.0739 26.8 10.0112 26.718 10.0112 26.4V24.98L11.7489 26.98H11.913V25.01C11.9227 24.58 12.0646 24.58 12.2026 24.58H12.2702L12.2316 24.44H11.3241V24.58H11.411C11.495 24.58 11.6919 24.611 11.6919 24.9V26.24L10.1946 24.49H9.48021V24.63H9.55744C9.63268 24.6298 9.70504 24.6599 9.75921 24.714C9.7871 24.7421 9.80925 24.7756 9.82434 24.8127C9.83943 24.8499 9.84716 24.8897 9.84706 24.93V26.43C9.8374 26.702 9.78624 26.859 9.54779 26.859L9.48986 26.86ZM8.33138 26.86V27H9.37401V26.81H9.31609C9.18383 26.81 9.07474 26.796 9.07474 26.62V24.77C9.07474 24.58 9.19252 24.58 9.31609 24.58H9.37401L9.34505 24.44H8.30242V24.58H8.39896C8.53026 24.58 8.62969 24.594 8.62969 24.77V26.67C8.62969 26.86 8.52253 26.86 8.39896 26.86H8.33138ZM35.8356 26.84V26.98H37.6409C37.6544 26.909 37.6747 26.837 37.694 26.768C37.7353 26.6428 37.7597 26.5122 37.7664 26.38V26.34H37.6409C37.6202 26.4289 37.5842 26.5133 37.5347 26.589C37.4551 26.6896 37.3408 26.7542 37.2161 26.769H36.772C36.6706 26.75 36.5789 26.721 36.5789 26.579V24.76C36.5789 24.58 36.6629 24.58 36.7913 24.58H36.8985V24.44H35.8365V24.58H35.8945C36.0267 24.58 36.1358 24.594 36.1358 24.77V26.62C36.1358 26.84 36.018 26.84 35.8945 26.84H35.8356ZM14.8092 26.78V26.92H16.6821C16.711 26.735 16.7506 26.547 16.7979 26.36L16.8279 26.29H16.7207C16.6145 26.71 16.4485 26.71 16.0449 26.71C15.818 26.71 15.6394 26.71 15.6394 26.49V25.68H16.0353C16.2853 25.69 16.2853 25.807 16.2853 26.02H16.4118V25.2H16.1994C16.1791 25.4 16.1347 25.5 15.9493 25.5H15.5535V24.6H16.0169C16.348 24.6 16.4127 24.747 16.4127 25H16.5382V24.44H14.8092V24.58H14.8768C15.009 24.58 15.1181 24.594 15.1181 24.77V26.59C15.1085 26.781 15.0013 26.781 14.8768 26.781L14.8092 26.78ZM37.6602 24.359C37.5654 24.3577 37.4741 24.3954 37.4062 24.4638C37.3383 24.5323 37.2994 24.6259 37.2981 24.724C37.2969 24.8221 37.3333 24.9168 37.3994 24.9871C37.4654 25.0574 37.5558 25.0977 37.6505 25.099H37.6689C37.7154 25.099 37.7614 25.0894 37.8043 25.0707C37.8471 25.052 37.8859 25.0246 37.9184 24.9901C37.9509 24.9556 37.9764 24.9148 37.9934 24.8699C38.0104 24.8251 38.0185 24.7772 38.0174 24.729C38.0169 24.6315 37.9795 24.5382 37.9132 24.469C37.847 24.3998 37.7571 24.3603 37.6631 24.359H37.6602ZM32.3119 20.159L31.5009 20.209L31.471 20.329C31.8485 20.359 31.8485 20.519 31.8485 20.689V22.379C31.8376 22.4769 31.8468 22.5761 31.8755 22.6701C31.9042 22.764 31.9517 22.8507 32.015 22.9243C32.0782 22.9979 32.1558 23.0569 32.2425 23.0973C32.3293 23.1378 32.4233 23.1588 32.5185 23.159H32.5339C32.9609 23.129 33.3611 22.9325 33.6538 22.609V23.139C33.9512 23.0472 34.2544 22.9771 34.5612 22.929V22.8H34.3102C34.204 22.8 34.1268 22.8 34.1268 22.68V20.28C34.1276 20.2554 34.1322 20.2311 34.1403 20.208C34.1461 20.189 34.151 20.175 34.1452 20.167C34.1394 20.159 34.1365 20.161 34.1268 20.161C34.0999 20.1636 34.0732 20.1676 34.0467 20.173C33.7543 20.2255 33.4581 20.2516 33.1614 20.251V20.371L33.2116 20.384C33.4221 20.44 33.6827 20.511 33.6827 20.631V22.361C33.4737 22.57 33.2072 22.7066 32.9201 22.752C32.3794 22.752 32.3794 22.187 32.3794 22.001V20.35C32.3794 20.212 32.3794 20.159 32.3119 20.159ZM25.9982 20.689C25.9788 21.0053 26.0222 21.3224 26.1257 21.6207C26.2293 21.919 26.3908 22.1921 26.6002 22.4232C26.8096 22.6543 27.0626 22.8385 27.3434 22.9643C27.6243 23.0902 27.9271 23.1551 28.2331 23.155C28.2891 23.155 28.346 23.155 28.402 23.148C28.8836 23.1306 29.3566 23.0115 29.7922 22.798L29.937 21.849H29.7922C29.747 22.163 29.5945 22.4497 29.3624 22.6569C29.1302 22.8642 28.834 22.9781 28.5275 22.978C27.9918 22.9303 27.4956 22.6668 27.1454 22.2442C26.7953 21.8217 26.619 21.2737 26.6546 20.718C26.6247 20.4589 26.648 20.1962 26.723 19.9471C26.798 19.698 26.923 19.4682 27.0899 19.2727C27.2567 19.0772 27.4616 18.9204 27.6911 18.8128C27.9205 18.7051 28.1694 18.649 28.4213 18.648C28.7373 18.6053 29.0568 18.6939 29.3101 18.8944C29.5633 19.0948 29.7297 19.3909 29.7729 19.718H29.9273L29.8607 18.788C29.3914 18.5844 28.8918 18.466 28.3837 18.438H28.3122C27.7136 18.4357 27.1375 18.6742 26.7053 19.1033C26.2731 19.5323 26.0185 20.1184 25.9953 20.738L25.9982 20.689ZM35.1984 22.909C35.4658 23.0572 35.764 23.1358 36.0673 23.138C36.4841 23.1129 36.8749 22.92 37.1563 22.6005C37.4377 22.281 37.5873 21.8602 37.5733 21.428C37.5865 21.2579 37.5666 21.0868 37.5145 20.9249C37.4625 20.763 37.3795 20.6137 37.2704 20.4858C37.1614 20.3579 37.0285 20.2541 36.8799 20.1806C36.7312 20.1071 36.5697 20.0654 36.4052 20.058C36.0409 20.0955 35.7001 20.2614 35.4398 20.528V18.15C35.4398 18.061 35.3915 18.06 35.3915 18.06L35.2476 18.129C35.0421 18.2457 34.8253 18.3399 34.6008 18.41V18.489L34.6288 18.497C34.848 18.56 34.9387 18.586 34.9387 18.997V21.837C34.9386 22.2264 34.9092 22.6153 34.8509 23L35.0053 23.059L35.1984 22.909ZM22.32 22.17L22.3876 22.911C22.6237 23.05 22.8885 23.1285 23.1599 23.14C23.9023 23.14 24.2411 22.679 24.2411 22.25C24.2411 21.703 23.8299 21.519 23.4321 21.342C23.0981 21.193 22.7834 21.052 22.7834 20.701C22.7874 20.6387 22.8033 20.5778 22.8304 20.522C22.8574 20.4662 22.8949 20.4166 22.9408 20.376C23.0219 20.3056 23.1245 20.2673 23.2304 20.268H23.2786H23.3173C23.484 20.2681 23.6443 20.3348 23.7647 20.4542C23.8852 20.5735 23.9566 20.7365 23.9641 20.909H24.1079L24.0596 20.249C23.8385 20.1303 23.5942 20.0654 23.3453 20.059C23.2278 20.0437 23.1086 20.0535 22.995 20.0879C22.8814 20.1223 22.7759 20.1805 22.6849 20.259C22.5944 20.3379 22.5206 20.4352 22.4681 20.545C22.4156 20.6548 22.3856 20.7746 22.3799 20.897C22.3799 21.449 22.7593 21.637 23.1261 21.82C23.4447 21.978 23.7449 22.127 23.7401 22.508C23.7393 22.5743 23.7249 22.6396 23.698 22.6997C23.671 22.7598 23.6321 22.8134 23.5838 22.8568C23.5355 22.9002 23.4789 22.9326 23.4176 22.9518C23.3564 22.9709 23.2919 22.9765 23.2284 22.968C23.0255 22.9561 22.8335 22.8686 22.688 22.7215C22.5425 22.5745 22.4533 22.3779 22.4368 22.168L22.32 22.17ZM18.8542 20.06C18.5718 20.0733 18.3021 20.1858 18.0896 20.379C17.9171 20.5512 17.783 20.7603 17.6964 20.9918C17.6099 21.2232 17.5731 21.4713 17.5886 21.719C17.5741 21.8943 17.5939 22.0708 17.6467 22.2381C17.6995 22.4053 17.7843 22.5598 17.8961 22.6923C18.0078 22.8248 18.1441 22.9327 18.297 23.0094C18.4498 23.0862 18.616 23.1302 18.7857 23.139C19.0237 23.1226 19.2544 23.0467 19.458 22.9178C19.6616 22.7889 19.832 22.6109 19.9548 22.399L19.8679 22.309C19.6497 22.5616 19.3448 22.7159 19.0183 22.739C18.7481 22.7195 18.4959 22.5913 18.3155 22.3819C18.1352 22.1725 18.041 21.8984 18.0529 21.618C18.0382 21.4717 18.0382 21.3243 18.0529 21.178H19.9162V21.058C19.9168 20.9178 19.8891 20.7791 19.8346 20.6507C19.7802 20.5224 19.7003 20.4073 19.6002 20.313C19.5 20.2188 19.3819 20.1473 19.2534 20.1034C19.1249 20.0594 18.9889 20.044 18.8542 20.058V20.06ZM8.33138 18.49V18.66H8.39124C8.65286 18.666 8.9 18.671 8.9 19.219V22.369C8.89035 22.819 8.70692 22.869 8.33042 22.869V23.039H10.0778C12.5878 23.039 12.6651 21.002 12.6651 20.769C12.6453 20.1543 12.3957 19.5716 11.969 19.144C11.5422 18.7163 10.9718 18.4772 10.378 18.477C10.3037 18.477 10.2284 18.477 10.155 18.488L8.33138 18.49ZM14.423 22.831V23H15.7649V22.9H15.6491C15.4773 22.9 15.3411 22.9 15.3411 22.68V20.76C15.5523 20.5913 15.8015 20.4812 16.0652 20.44C16.1404 20.4294 16.2169 20.4363 16.2892 20.4601C16.3615 20.484 16.4278 20.5243 16.4832 20.578C16.5383 20.6317 16.5813 20.6974 16.609 20.7704C16.6367 20.8434 16.6485 20.9218 16.6435 21V22.61C16.6435 22.83 16.518 22.83 16.3442 22.83H16.2283V23H17.5606V22.87H17.4544C17.269 22.87 17.1358 22.87 17.1358 22.65V20.97C17.1358 20.555 17.0103 20.06 16.4118 20.06C15.9986 20.0875 15.6069 20.2604 15.3016 20.55V20.06C15.0308 20.1788 14.7539 20.2823 14.4723 20.37V20.5C14.7696 20.623 14.8295 20.7 14.8295 20.93V22.61C14.8295 22.83 14.704 22.83 14.5292 22.83L14.423 22.831ZM30.1011 22.831V23H31.4527V22.87H31.3465C31.1611 22.87 31.0279 22.87 31.0279 22.65V18.06C31.0192 18.0615 31.0108 18.0642 31.0028 18.068C30.9528 18.0901 30.8988 18.101 30.8445 18.1C30.6348 18.2148 30.4149 18.3086 30.188 18.38V18.49L30.216 18.498C30.4351 18.561 30.5259 18.587 30.5259 18.998V22.608C30.5259 22.828 30.4004 22.828 30.2266 22.828L30.1011 22.831ZM20.0224 22.831V23H21.6539V22.9H21.3063V22.87H21.3015C21.1181 22.87 20.9984 22.87 20.9887 22.65V21.12C20.9902 20.9873 21.0379 20.8596 21.123 20.7603C21.2082 20.6611 21.325 20.5971 21.4521 20.58C21.534 20.5782 21.6135 20.6082 21.6751 20.664C21.7283 20.7131 21.797 20.7401 21.8682 20.74C21.9083 20.7389 21.9478 20.7294 21.9843 20.7121C22.0208 20.6948 22.0535 20.67 22.0806 20.6393C22.1076 20.6086 22.1284 20.5725 22.1417 20.5333C22.1549 20.4941 22.1604 20.4525 22.1578 20.411C22.1578 20.3632 22.1484 20.316 22.1302 20.2721C22.1119 20.2283 22.0852 20.1887 22.0516 20.156C21.9899 20.0926 21.9068 20.0568 21.8199 20.056H21.8006C21.4145 20.056 21.1335 20.508 20.9993 20.726V20.146C20.9993 20.056 20.9993 20.056 20.9414 20.056C20.8715 20.077 20.8046 20.1076 20.7425 20.147C20.6151 20.214 20.423 20.316 20.1691 20.426V20.526C20.1884 20.536 20.2145 20.546 20.2415 20.557C20.3496 20.599 20.4983 20.657 20.4983 20.816V22.606C20.4983 22.826 20.3728 22.826 20.199 22.826L20.0224 22.831ZM12.8881 22.871V23H14.2396V22.9H14.1334C13.9481 22.9 13.8148 22.9 13.8148 22.68V20.18C13.8148 20.091 13.7666 20.09 13.7666 20.09H13.6604C13.4395 20.1825 13.2139 20.2627 12.9846 20.33V20.43L13.0136 20.446C13.225 20.564 13.3128 20.612 13.3128 20.89V22.65C13.3128 22.87 13.1873 22.87 13.0136 22.87L12.8881 22.871ZM13.5638 18.421C13.5023 18.421 13.4422 18.4401 13.3912 18.4757C13.3403 18.5113 13.3007 18.5619 13.2776 18.621C13.2546 18.68 13.249 18.7449 13.2617 18.8072C13.2745 18.8695 13.3049 18.9265 13.349 18.9708C13.3932 19.0152 13.4492 19.0448 13.5097 19.056C13.5703 19.0672 13.6327 19.0594 13.6889 19.0337C13.7452 19.0079 13.7927 18.9653 13.8255 18.9114C13.8582 18.8575 13.8747 18.7947 13.8728 18.731C13.8705 18.6477 13.837 18.5686 13.7793 18.5105C13.7216 18.4524 13.6443 18.421 13.5638 18.421ZM21.6249 17.58H24.5771C26.2012 17.5828 27.7635 16.9349 28.937 15.7719C30.1105 14.6089 30.8044 13.0208 30.8734 11.34C30.8458 9.62571 30.1625 7.99286 28.9735 6.8C27.8188 5.64297 26.2744 4.99733 24.6678 5H24.5211H21.4975C20.71 4.99786 19.93 5.15753 19.2025 5.46977C18.4751 5.782 17.8146 6.24059 17.2594 6.819C16.4133 7.70441 15.8388 8.82922 15.6082 10.052C15.3776 11.2747 15.5012 12.5407 15.9635 13.6909C16.4258 14.841 17.206 15.8239 18.2062 16.5159C19.2063 17.2079 20.3816 17.5781 21.5844 17.58H21.6249ZM29.1936 26.83C29.0389 26.8318 28.8883 26.7777 28.7679 26.677C28.7417 26.6554 28.7168 26.632 28.6936 26.607C28.4691 26.3273 28.3547 25.9702 28.373 25.607V25.59C28.373 25.359 28.4368 24.606 29.1347 24.606V24.576H29.1772C29.3037 24.5836 29.4253 24.6288 29.5277 24.706C29.5622 24.7317 29.5945 24.7604 29.6242 24.792C29.8281 25.0436 29.9363 25.3636 29.9283 25.692C29.9371 25.356 29.8234 25.029 29.6097 24.776C29.8368 25.0302 29.9615 25.3647 29.9582 25.711V25.727C29.9563 26.26 29.7178 26.83 29.1936 26.83ZM29.6261 24.802C29.7422 24.9387 29.8241 25.1028 29.8646 25.28C29.8248 25.102 29.7429 24.937 29.6261 24.8V24.802ZM34.6288 25.87H34.0303L34.0399 25.84L34.3238 24.967L34.3286 24.952L34.3382 24.921L34.6192 25.841L34.6279 25.869L34.6288 25.87ZM23.4679 25.87H22.8693L22.878 25.84L23.1309 25.015L23.1502 24.953L23.4302 25.84H23.4399L23.1502 24.94L23.1695 24.89L23.4592 25.84L23.4679 25.868V25.87ZM17.7237 25.6H17.6562V24.6H17.8695C17.9717 24.6187 18.0643 24.6738 18.1313 24.7558C18.1983 24.8378 18.2355 24.9416 18.2364 25.049V25.06C18.2364 25.443 18.0887 25.6 17.7247 25.6H17.7237ZM17.6465 25.6H17.5702V24.6H17.6475V25.6H17.6465ZM17.8174 25.6C18.1698 25.6 18.3126 25.441 18.3126 25.062C18.3129 24.9586 18.2794 24.8581 18.2175 24.777C18.1556 24.6958 18.069 24.6387 17.9718 24.615C18.0536 24.632 18.1288 24.6733 18.1881 24.734C18.2305 24.7768 18.2642 24.828 18.2873 24.8845C18.3103 24.941 18.3222 25.0017 18.3223 25.063C18.3233 25.441 18.1775 25.6 17.8183 25.6H17.8174ZM37.6698 25.01C37.6065 25.0157 37.5432 24.999 37.4903 24.9625C37.4374 24.926 37.3981 24.872 37.3788 24.8093C37.3595 24.7466 37.3613 24.6789 37.384 24.6174C37.4067 24.556 37.449 24.5043 37.5038 24.471C37.4861 24.4818 37.4696 24.4946 37.4545 24.509C37.4868 24.4717 37.5275 24.4433 37.573 24.4265C37.6185 24.4096 37.6674 24.4049 37.7152 24.4126C37.7629 24.4203 37.808 24.4403 37.8464 24.4708C37.8848 24.5012 37.9152 24.5411 37.9349 24.5868C37.9546 24.6325 37.9629 24.6826 37.9591 24.7325C37.9553 24.7825 37.9396 24.8306 37.9132 24.8726C37.8868 24.9145 37.8508 24.949 37.8083 24.9728C37.7658 24.9967 37.7182 25.0101 37.6698 25.01ZM37.6505 24.737C37.7152 24.825 37.7818 24.904 37.7847 24.908H37.7973L37.8146 24.928L37.8233 24.938L37.8533 24.908H37.7973L37.7461 24.848L37.6891 24.758C37.7138 24.7531 37.7359 24.7394 37.7518 24.7193C37.7677 24.6992 37.7762 24.674 37.776 24.648C37.776 24.548 37.7181 24.548 37.6505 24.548H37.5154H37.5347V24.858H37.6505V24.735V24.737ZM36.0866 23C35.921 22.9803 35.7684 22.8979 35.6579 22.7687C35.5474 22.6395 35.4869 22.4726 35.488 22.3V20.75C35.6453 20.5757 35.8576 20.4654 36.0866 20.439C36.287 20.4795 36.4741 20.5725 36.6301 20.709C36.7572 20.8203 36.8605 20.9578 36.9334 21.1128C37.0064 21.2677 37.0474 21.4367 37.0539 21.609V21.622C37.0539 21.656 37.0539 21.691 37.0539 21.722C37.052 22.342 36.7498 23 36.0866 23ZM10.1753 22.832C10.0574 22.8337 9.93985 22.8168 9.82679 22.782C9.90405 22.7946 9.98221 22.8002 10.0604 22.799H10.2448C10.4749 22.7995 10.7028 22.7526 10.9152 22.6611C11.1277 22.5696 11.3205 22.4353 11.4824 22.266C11.3186 22.4438 11.1218 22.5854 10.9038 22.6823C10.6858 22.7792 10.4511 22.8295 10.2139 22.83H10.1753V22.832ZM10.1927 22.801H10.1782C9.90498 22.801 9.61922 22.756 9.54006 22.432C9.55328 22.5213 9.59193 22.6046 9.65108 22.671C9.59395 22.6169 9.54967 22.5498 9.5217 22.4751C9.49373 22.4003 9.48283 22.3199 9.48986 22.24V18.7H9.53523H9.51979V22.24C9.5192 22.3047 9.52633 22.3692 9.54103 22.432C9.53205 22.3785 9.52817 22.3243 9.52944 22.27V18.73C9.61729 18.725 9.70032 18.723 9.77562 18.723C9.85092 18.723 9.9407 18.723 10.0218 18.73C10.2248 18.7306 10.4265 18.7643 10.6194 18.83C10.4337 18.7574 10.2383 18.7149 10.0401 18.704H10.0488H10.0855H10.1608C10.6533 18.7326 11.1165 18.9553 11.4554 19.3265C11.7943 19.6977 11.9833 20.1891 11.9835 20.7C11.9835 20.7347 11.9835 20.768 11.9835 20.8C12.0095 21.0535 11.9834 21.3098 11.9071 21.5521C11.8307 21.7944 11.7057 22.0172 11.5404 22.206C11.818 21.8728 11.9691 21.4462 11.9651 21.006C11.9656 20.9409 11.9627 20.8758 11.9565 20.811C11.9565 20.7803 11.9565 20.7493 11.9565 20.718C11.9613 20.1965 11.7686 19.6939 11.4197 19.318C11.0982 18.9736 10.6692 18.7586 10.2091 18.711C10.662 18.7615 11.0838 18.9736 11.4023 19.311L11.41 19.319C11.5774 19.5023 11.7103 19.7163 11.802 19.95C11.6414 19.5562 11.3633 19.2261 11.0084 19.008L10.9515 18.972C10.8454 18.9131 10.7342 18.8645 10.6194 18.827C10.9866 18.9707 11.3028 19.227 11.5258 19.5616C11.7488 19.8963 11.8681 20.2934 11.8676 20.7C11.8676 20.7333 11.8676 20.7667 11.8676 20.8C11.8744 20.8664 11.8776 20.9332 11.8773 21C11.8751 21.4668 11.699 21.9146 11.3856 22.25C11.0722 22.5854 10.6459 22.7825 10.1956 22.8L10.1927 22.801ZM9.82582 22.785C9.76314 22.7789 9.70227 22.7599 9.64683 22.729C9.59139 22.6981 9.5425 22.656 9.50306 22.6052C9.46363 22.5544 9.43445 22.4958 9.41725 22.4331C9.40006 22.3704 9.39521 22.3047 9.40298 22.24V18.7H9.48793H9.46766H9.52269C9.50854 18.7009 9.49435 18.7009 9.48021 18.7V22.24C9.47123 22.3288 9.48538 22.4185 9.52121 22.4998C9.55703 22.581 9.61321 22.6509 9.68391 22.702C9.67727 22.697 9.67112 22.6913 9.66556 22.685L9.65398 22.671C9.72734 22.7282 9.81325 22.7656 9.90402 22.78C9.82719 22.7698 9.75323 22.7433 9.6868 22.702C9.71643 22.7258 9.74887 22.7457 9.78334 22.761C9.79973 22.7689 9.81648 22.7759 9.83354 22.782L9.82582 22.785ZM10.6271 22.749C11.0366 22.6435 11.3954 22.388 11.6371 22.0297C11.8788 21.6714 11.9871 21.2346 11.942 20.8C11.942 20.766 11.942 20.7327 11.942 20.7C11.9417 20.4893 11.9091 20.2801 11.8454 20.08C11.9141 20.2856 11.95 20.5014 11.9516 20.719C11.9516 20.747 11.9516 20.775 11.9516 20.803V20.833C11.9574 20.891 11.9603 20.949 11.9613 21.007C11.9587 21.4105 11.826 21.8015 11.5843 22.1178C11.3425 22.4342 11.0056 22.6578 10.6271 22.753V22.749ZM19.1226 21.03H18.1109C18.1881 20.56 18.442 20.283 18.8079 20.27H18.8301C18.9695 20.2748 19.1014 20.3366 19.1969 20.442C19.2478 20.4989 19.2866 20.5662 19.3109 20.6396C19.3352 20.7129 19.3444 20.7907 19.3379 20.868H19.308V20.88V20.874C19.3097 20.8966 19.3097 20.9194 19.308 20.942C19.2993 21 19.2655 21.005 19.1265 21.028L19.1226 21.03ZM18.0414 21.03H18.0317C18.1099 20.546 18.3744 20.27 18.7558 20.27C18.3812 20.27 18.1205 20.55 18.0414 21.03Z" fill="#333441"/>
</svg>
