<svg width="47" height="32" viewBox="0 0 47 32" fill="none" xmlns="http://www.w3.org/2000/svg">
<path d="M42.4775 0H3.86159C1.72889 0 0 1.79086 0 4V28C0 30.2091 1.72889 32 3.86159 32H42.4775C44.6102 32 46.3391 30.2091 46.3391 28V4C46.3391 1.79086 44.6102 0 42.4775 0Z" fill="#333441"/>
<path d="M14.5372 10.4006L14.0062 9.85059C13.8326 9.97951 13.6912 10.1494 13.5936 10.3463C13.4961 10.5432 13.4452 10.7613 13.4453 10.9826V21.1826C13.4435 21.5477 13.5817 21.8986 13.8295 22.1583C14.0773 22.418 14.4145 22.5652 14.767 22.5676H26.2851L25.5543 21.8106H14.765C14.6862 21.8094 14.6083 21.7922 14.5359 21.7598C14.4635 21.7275 14.3979 21.6807 14.343 21.6221C14.288 21.5635 14.2447 21.4942 14.2156 21.4183C14.1865 21.3424 14.1721 21.2613 14.1732 21.1796V20.3986H24.1931L21.0073 17.0986H14.1732V10.9786C14.1733 10.8561 14.2077 10.7362 14.2723 10.6336C14.337 10.531 14.429 10.45 14.5372 10.4006Z" fill="white"/>
<path d="M31.9551 21.7516L32.4822 22.2976C32.6494 22.1687 32.7853 22.0012 32.879 21.8083C32.9727 21.6154 33.0216 21.4025 33.0219 21.1866V10.9866C33.0237 10.6213 32.8856 10.2701 32.6378 10.0101C32.3901 9.75015 32.0529 9.60252 31.7002 9.59961H20.2188L20.9496 10.3566H31.6993C31.7781 10.3578 31.856 10.375 31.9284 10.4074C32.0008 10.4397 32.0664 10.4865 32.1214 10.5451C32.1763 10.6037 32.2196 10.673 32.2487 10.7489C32.2778 10.8248 32.2922 10.9059 32.2911 10.9876V17.1076H27.4641L30.6499 20.4076H32.2911V21.1886C32.2912 21.3056 32.2598 21.4202 32.2005 21.5197C32.1411 21.6191 32.0562 21.6995 31.9551 21.7516Z" fill="white"/>
<path d="M15.5203 10.351L22.0348 17.099L25.2207 20.399L26.5838 21.811L27.3146 22.565L31.5913 26.999L33.7895 24.722L31.711 22.571L30.9831 21.817L29.62 20.405L26.4342 17.105L19.9168 10.354L19.186 9.6L14.7451 5L12.5508 7.275L14.7895 9.599L15.5203 10.351Z" fill="white"/>
</svg>
